# xmcd CD database file
# Copyright (C) 1995-1998 Ti Kan
#
# Track frame offsets:
#	150
#	12658
#	27235
#	43401
#	58622
#	77358
#	97846
#	119039
#	147383
#	159734
#	174403
#	194060
#	209889
#
# Disc length: 2985 seconds
#
# Revision: 1
# Processed by: cddbd v1.4PL0 Copyright (c) Steve Scherf et al.
# Submitted via: CDex 1.30Release
#
DISCID=c20ba70d
DTITLE=Brad Paisley - Part II
DYEAR=2001
DGENRE=Country
TTITLE0=Two Feet Of Topsoil
TTITLE1=I'm Gonna Miss Her
TTITLE2=Part Two
TTITLE3=Wrapped Around
TTITLE4=Two People Fell In Love
TTITLE5=Come Over Tonight
TTITLE6=You'll Never Leave Harlan Alive
TTITLE7=I Wish You'd Stay
TTITLE8=All You Really Need Is Love
TTITLE9=Munster Rag(Instramental)
TTITLE10=You Have That Effect On Me
TTITLE11=Too Country
TTITLE12=The Old Rugged Cross
EXTD=YEAR: 2001 ID3G:   2
EXTT0=
EXTT1=
EXTT2=
EXTT3=
EXTT4=
EXTT5=
EXTT6=
EXTT7=
EXTT8=
EXTT9=
EXTT10=
EXTT11=
EXTT12=
PLAYORDER=
